<svg width="16" height="16" viewBox="0 0 16 16" fill="none" xmlns="http://www.w3.org/2000/svg">
<path d="M11.889 7.89279C12.3132 7.53922 12.3706 6.90866 12.017 6.48438C11.6634 6.0601 11.0329 6.00278 10.6086 6.35634L11.889 7.89279ZM8.15517 9.70258L7.51498 10.4708C7.88583 10.7798 8.4245 10.7798 8.79535 10.4708L8.15517 9.70258ZM5.70174 6.35634C5.27746 6.00278 4.64689 6.0601 4.29333 6.48438C3.93977 6.90866 3.99709 7.53922 4.42137 7.89278L5.70174 6.35634ZM10.6086 6.35634L7.51498 8.93435L8.79535 10.4708L11.889 7.89279L10.6086 6.35634ZM8.79535 8.93435L5.70174 6.35634L4.42137 7.89278L7.51498 10.4708L8.79535 8.93435ZM14 8C14 11.3137 11.3137 14 8 14V16C12.4183 16 16 12.4183 16 8H14ZM8 14C4.68629 14 2 11.3137 2 8H0C0 12.4183 3.58172 16 8 16V14ZM2 8C2 4.68629 4.68629 2 8 2V0C3.58172 0 0 3.58172 0 8H2ZM8 2C11.3137 2 14 4.68629 14 8H16C16 3.58172 12.4183 0 8 0V2Z" fill="black"/>
</svg>
