<svg width="52" height="52" viewBox="0 0 52 52" fill="none" xmlns="http://www.w3.org/2000/svg">
<path d="M46.5833 2.16667H45.5V9.75C45.5 11.5418 44.0418 13 42.25 13C40.4582 13 39 11.5418 39 9.75C39 8.3395 39.9078 7.14783 41.1667 6.69933V9.75C41.1667 10.348 41.652 10.8333 42.25 10.8333C42.848 10.8333 43.3333 10.348 43.3333 9.75V1.08333C43.3333 0.485333 42.848 0 42.25 0C41.652 0 41.1667 0.485333 41.1667 1.08333V2.16667H34.6667V9.75C34.6667 11.5418 33.2085 13 31.4167 13C29.6248 13 28.1667 11.5418 28.1667 9.75C28.1667 8.3395 29.0745 7.14783 30.3333 6.69933V9.75C30.3333 10.348 30.8187 10.8333 31.4167 10.8333C32.0147 10.8333 32.5 10.348 32.5 9.75V1.08333C32.5 0.485333 32.0147 0 31.4167 0C30.8187 0 30.3333 0.485333 30.3333 1.08333V2.16667H23.8333V9.75C23.8333 11.5418 22.3752 13 20.5833 13C18.7915 13 17.3333 11.5418 17.3333 9.75C17.3333 8.3395 18.2412 7.14783 19.5 6.69933V9.75C19.5 10.348 19.9853 10.8333 20.5833 10.8333C21.1813 10.8333 21.6667 10.348 21.6667 9.75V1.08333C21.6667 0.485333 21.1813 0 20.5833 0C19.9853 0 19.5 0.485333 19.5 1.08333V2.16667H13V9.75C13 11.5418 11.5418 13 9.75 13C7.95817 13 6.5 11.5418 6.5 9.75C6.5 8.3395 7.40783 7.14783 8.66667 6.69933V9.75C8.66667 10.348 9.152 10.8333 9.75 10.8333C10.348 10.8333 10.8333 10.348 10.8333 9.75V1.08333C10.8333 0.485333 10.348 0 9.75 0C9.152 0 8.66667 0.485333 8.66667 1.08333V2.16667H5.41667C2.431 2.16667 0 4.59767 0 7.58333V46.5833C0 49.569 2.431 52 5.41667 52H46.5833C49.569 52 52 49.569 52 46.5833V7.58333C52 4.59767 49.569 2.16667 46.5833 2.16667ZM49.8333 46.5833C49.8333 48.3752 48.3752 49.8333 46.5833 49.8333H5.41667C3.62483 49.8333 2.16667 48.3752 2.16667 46.5833V17.3333H49.8333V46.5833Z" fill="black"/>
</svg>
