<svg width="343" height="73" viewBox="0 0 343 73" fill="none" xmlns="http://www.w3.org/2000/svg">
<rect x="1" y="5" width="105" height="63" rx="4" fill="black" stroke="white" stroke-width="2"/>
<mask id="path-2-outside-1_1_63" maskUnits="userSpaceOnUse" x="120" y="18" width="214" height="33" fill="black">
<rect fill="white" x="120" y="18" width="214" height="33"/>
<path d="M133.376 48.504C131.312 48.504 129.32 48.252 127.4 47.748C125.504 47.22 123.956 46.548 122.756 45.732L125.096 40.476C126.224 41.196 127.52 41.796 128.984 42.276C130.472 42.732 131.948 42.96 133.412 42.96C134.396 42.96 135.188 42.876 135.788 42.708C136.388 42.516 136.82 42.276 137.084 41.988C137.372 41.676 137.516 41.316 137.516 40.908C137.516 40.332 137.252 39.876 136.724 39.54C136.196 39.204 135.512 38.928 134.672 38.712C133.832 38.496 132.896 38.28 131.864 38.064C130.856 37.848 129.836 37.572 128.804 37.236C127.796 36.9 126.872 36.468 126.032 35.94C125.192 35.388 124.508 34.68 123.98 33.816C123.452 32.928 123.188 31.812 123.188 30.468C123.188 28.956 123.596 27.588 124.412 26.364C125.252 25.14 126.5 24.156 128.156 23.412C129.812 22.668 131.876 22.296 134.348 22.296C136.004 22.296 137.624 22.488 139.208 22.872C140.816 23.232 142.244 23.772 143.492 24.492L141.296 29.784C140.096 29.136 138.908 28.656 137.732 28.344C136.556 28.008 135.416 27.84 134.312 27.84C133.328 27.84 132.536 27.948 131.936 28.164C131.336 28.356 130.904 28.62 130.64 28.956C130.376 29.292 130.244 29.676 130.244 30.108C130.244 30.66 130.496 31.104 131 31.44C131.528 31.752 132.212 32.016 133.052 32.232C133.916 32.424 134.852 32.628 135.86 32.844C136.892 33.06 137.912 33.336 138.92 33.672C139.952 33.984 140.888 34.416 141.728 34.968C142.568 35.496 143.24 36.204 143.744 37.092C144.272 37.956 144.536 39.048 144.536 40.368C144.536 41.832 144.116 43.188 143.276 44.436C142.46 45.66 141.224 46.644 139.568 47.388C137.936 48.132 135.872 48.504 133.376 48.504ZM148.549 48V22.8H161.437C164.749 22.8 167.221 23.412 168.853 24.636C170.485 25.836 171.301 27.42 171.301 29.388C171.301 30.684 170.953 31.824 170.257 32.808C169.585 33.768 168.625 34.536 167.377 35.112C166.153 35.664 164.689 35.94 162.985 35.94L163.705 34.212C165.481 34.212 167.029 34.488 168.349 35.04C169.669 35.568 170.689 36.348 171.409 37.38C172.153 38.388 172.525 39.624 172.525 41.088C172.525 43.272 171.637 44.976 169.861 46.2C168.109 47.4 165.541 48 162.157 48H148.549ZM155.605 42.852H161.581C162.805 42.852 163.729 42.648 164.353 42.24C165.001 41.808 165.325 41.16 165.325 40.296C165.325 39.432 165.001 38.796 164.353 38.388C163.729 37.956 162.805 37.74 161.581 37.74H155.101V32.808H160.501C161.701 32.808 162.601 32.604 163.201 32.196C163.801 31.788 164.101 31.176 164.101 30.36C164.101 29.544 163.801 28.944 163.201 28.56C162.601 28.152 161.701 27.948 160.501 27.948H155.605V42.852ZM179.739 48.324C178.587 48.324 177.615 47.94 176.823 47.172C176.031 46.404 175.635 45.432 175.635 44.256C175.635 43.032 176.031 42.06 176.823 41.34C177.615 40.596 178.587 40.224 179.739 40.224C180.891 40.224 181.863 40.596 182.655 41.34C183.447 42.06 183.843 43.032 183.843 44.256C183.843 45.432 183.447 46.404 182.655 47.172C181.863 47.94 180.891 48.324 179.739 48.324ZM188.566 48V28.704C188.566 26.352 189.262 24.48 190.654 23.088C192.07 21.672 194.086 20.964 196.702 20.964C197.542 20.964 198.37 21.048 199.186 21.216C200.002 21.384 200.686 21.636 201.238 21.972L199.546 26.796C199.258 26.628 198.934 26.496 198.574 26.4C198.214 26.28 197.854 26.22 197.494 26.22C196.774 26.22 196.21 26.436 195.802 26.868C195.418 27.276 195.226 27.912 195.226 28.776V30.18L195.406 33.024V48H188.566ZM185.722 34.32V29.208H199.87V34.32H185.722ZM212.7 48.324C210.564 48.324 208.668 47.892 207.012 47.028C205.356 46.164 204.048 44.976 203.088 43.464C202.152 41.928 201.684 40.176 201.684 38.208C201.684 36.24 202.152 34.5 203.088 32.988C204.048 31.476 205.356 30.3 207.012 29.46C208.668 28.596 210.564 28.164 212.7 28.164C214.836 28.164 216.732 28.596 218.388 29.46C220.068 30.3 221.376 31.476 222.312 32.988C223.248 34.5 223.716 36.24 223.716 38.208C223.716 40.176 223.248 41.928 222.312 43.464C221.376 44.976 220.068 46.164 218.388 47.028C216.732 47.892 214.836 48.324 212.7 48.324ZM212.7 42.888C213.492 42.888 214.188 42.708 214.788 42.348C215.412 41.988 215.904 41.46 216.264 40.764C216.624 40.044 216.804 39.192 216.804 38.208C216.804 37.224 216.624 36.396 216.264 35.724C215.904 35.028 215.412 34.5 214.788 34.14C214.188 33.78 213.492 33.6 212.7 33.6C211.932 33.6 211.236 33.78 210.612 34.14C210.012 34.5 209.52 35.028 209.136 35.724C208.776 36.396 208.596 37.224 208.596 38.208C208.596 39.192 208.776 40.044 209.136 40.764C209.52 41.46 210.012 41.988 210.612 42.348C211.236 42.708 211.932 42.888 212.7 42.888ZM227.605 48V28.488H234.121V34.176L233.149 32.556C233.725 31.092 234.661 30 235.957 29.28C237.253 28.536 238.825 28.164 240.673 28.164V34.32C240.361 34.272 240.085 34.248 239.845 34.248C239.629 34.224 239.389 34.212 239.125 34.212C237.733 34.212 236.605 34.596 235.741 35.364C234.877 36.108 234.445 37.332 234.445 39.036V48H227.605ZM253.525 48.324C251.029 48.324 249.085 47.712 247.693 46.488C246.301 45.24 245.605 43.368 245.605 40.872V24.132H252.445V40.8C252.445 41.496 252.637 42.048 253.021 42.456C253.405 42.84 253.897 43.032 254.497 43.032C255.313 43.032 256.009 42.828 256.585 42.42L258.277 47.208C257.701 47.592 256.993 47.868 256.153 48.036C255.313 48.228 254.437 48.324 253.525 48.324ZM242.761 34.32V29.208H256.909V34.32H242.761ZM269.842 48.324C268.258 48.324 266.83 48.012 265.558 47.388C264.31 46.764 263.326 45.792 262.606 44.472C261.91 43.128 261.562 41.436 261.562 39.396V28.488H268.402V38.28C268.402 39.792 268.678 40.872 269.23 41.52C269.806 42.168 270.61 42.492 271.642 42.492C272.314 42.492 272.926 42.336 273.478 42.024C274.03 41.712 274.474 41.22 274.81 40.548C275.146 39.852 275.314 38.964 275.314 37.884V28.488H282.154V48H275.638V42.492L276.898 44.04C276.226 45.48 275.254 46.56 273.982 47.28C272.71 47.976 271.33 48.324 269.842 48.324ZM299.988 28.164C301.5 28.164 302.868 28.476 304.092 29.1C305.316 29.7 306.276 30.636 306.972 31.908C307.692 33.18 308.052 34.824 308.052 36.84V48H301.212V37.956C301.212 36.564 300.924 35.556 300.348 34.932C299.796 34.284 299.016 33.96 298.008 33.96C297.288 33.96 296.628 34.128 296.028 34.464C295.428 34.776 294.96 35.268 294.624 35.94C294.288 36.612 294.12 37.488 294.12 38.568V48H287.28V28.488H293.796V34.032L292.536 32.412C293.28 30.996 294.3 29.94 295.596 29.244C296.892 28.524 298.356 28.164 299.988 28.164ZM324.983 48V44.364L324.515 43.464V36.768C324.515 35.688 324.179 34.86 323.507 34.284C322.859 33.684 321.815 33.384 320.375 33.384C319.439 33.384 318.491 33.54 317.531 33.852C316.571 34.14 315.755 34.548 315.083 35.076L312.779 30.432C313.883 29.712 315.203 29.16 316.739 28.776C318.299 28.368 319.847 28.164 321.383 28.164C324.551 28.164 326.999 28.896 328.727 30.36C330.479 31.8 331.355 34.068 331.355 37.164V48H324.983ZM319.223 48.324C317.663 48.324 316.343 48.06 315.263 47.532C314.183 47.004 313.355 46.284 312.779 45.372C312.227 44.46 311.951 43.44 311.951 42.312C311.951 41.112 312.251 40.08 312.851 39.216C313.475 38.328 314.423 37.656 315.695 37.2C316.967 36.72 318.611 36.48 320.627 36.48H325.235V40.044H321.563C320.459 40.044 319.679 40.224 319.223 40.584C318.791 40.944 318.575 41.424 318.575 42.024C318.575 42.624 318.803 43.104 319.259 43.464C319.715 43.824 320.339 44.004 321.131 44.004C321.875 44.004 322.547 43.824 323.147 43.464C323.771 43.08 324.227 42.504 324.515 41.736L325.451 44.256C325.091 45.6 324.383 46.62 323.327 47.316C322.295 47.988 320.927 48.324 319.223 48.324Z"/>
</mask>
<path d="M133.376 48.504C131.312 48.504 129.32 48.252 127.4 47.748C125.504 47.22 123.956 46.548 122.756 45.732L125.096 40.476C126.224 41.196 127.52 41.796 128.984 42.276C130.472 42.732 131.948 42.96 133.412 42.96C134.396 42.96 135.188 42.876 135.788 42.708C136.388 42.516 136.82 42.276 137.084 41.988C137.372 41.676 137.516 41.316 137.516 40.908C137.516 40.332 137.252 39.876 136.724 39.54C136.196 39.204 135.512 38.928 134.672 38.712C133.832 38.496 132.896 38.28 131.864 38.064C130.856 37.848 129.836 37.572 128.804 37.236C127.796 36.9 126.872 36.468 126.032 35.94C125.192 35.388 124.508 34.68 123.98 33.816C123.452 32.928 123.188 31.812 123.188 30.468C123.188 28.956 123.596 27.588 124.412 26.364C125.252 25.14 126.5 24.156 128.156 23.412C129.812 22.668 131.876 22.296 134.348 22.296C136.004 22.296 137.624 22.488 139.208 22.872C140.816 23.232 142.244 23.772 143.492 24.492L141.296 29.784C140.096 29.136 138.908 28.656 137.732 28.344C136.556 28.008 135.416 27.84 134.312 27.84C133.328 27.84 132.536 27.948 131.936 28.164C131.336 28.356 130.904 28.62 130.64 28.956C130.376 29.292 130.244 29.676 130.244 30.108C130.244 30.66 130.496 31.104 131 31.44C131.528 31.752 132.212 32.016 133.052 32.232C133.916 32.424 134.852 32.628 135.86 32.844C136.892 33.06 137.912 33.336 138.92 33.672C139.952 33.984 140.888 34.416 141.728 34.968C142.568 35.496 143.24 36.204 143.744 37.092C144.272 37.956 144.536 39.048 144.536 40.368C144.536 41.832 144.116 43.188 143.276 44.436C142.46 45.66 141.224 46.644 139.568 47.388C137.936 48.132 135.872 48.504 133.376 48.504ZM148.549 48V22.8H161.437C164.749 22.8 167.221 23.412 168.853 24.636C170.485 25.836 171.301 27.42 171.301 29.388C171.301 30.684 170.953 31.824 170.257 32.808C169.585 33.768 168.625 34.536 167.377 35.112C166.153 35.664 164.689 35.94 162.985 35.94L163.705 34.212C165.481 34.212 167.029 34.488 168.349 35.04C169.669 35.568 170.689 36.348 171.409 37.38C172.153 38.388 172.525 39.624 172.525 41.088C172.525 43.272 171.637 44.976 169.861 46.2C168.109 47.4 165.541 48 162.157 48H148.549ZM155.605 42.852H161.581C162.805 42.852 163.729 42.648 164.353 42.24C165.001 41.808 165.325 41.16 165.325 40.296C165.325 39.432 165.001 38.796 164.353 38.388C163.729 37.956 162.805 37.74 161.581 37.74H155.101V32.808H160.501C161.701 32.808 162.601 32.604 163.201 32.196C163.801 31.788 164.101 31.176 164.101 30.36C164.101 29.544 163.801 28.944 163.201 28.56C162.601 28.152 161.701 27.948 160.501 27.948H155.605V42.852ZM179.739 48.324C178.587 48.324 177.615 47.94 176.823 47.172C176.031 46.404 175.635 45.432 175.635 44.256C175.635 43.032 176.031 42.06 176.823 41.34C177.615 40.596 178.587 40.224 179.739 40.224C180.891 40.224 181.863 40.596 182.655 41.34C183.447 42.06 183.843 43.032 183.843 44.256C183.843 45.432 183.447 46.404 182.655 47.172C181.863 47.94 180.891 48.324 179.739 48.324ZM188.566 48V28.704C188.566 26.352 189.262 24.48 190.654 23.088C192.07 21.672 194.086 20.964 196.702 20.964C197.542 20.964 198.37 21.048 199.186 21.216C200.002 21.384 200.686 21.636 201.238 21.972L199.546 26.796C199.258 26.628 198.934 26.496 198.574 26.4C198.214 26.28 197.854 26.22 197.494 26.22C196.774 26.22 196.21 26.436 195.802 26.868C195.418 27.276 195.226 27.912 195.226 28.776V30.18L195.406 33.024V48H188.566ZM185.722 34.32V29.208H199.87V34.32H185.722ZM212.7 48.324C210.564 48.324 208.668 47.892 207.012 47.028C205.356 46.164 204.048 44.976 203.088 43.464C202.152 41.928 201.684 40.176 201.684 38.208C201.684 36.24 202.152 34.5 203.088 32.988C204.048 31.476 205.356 30.3 207.012 29.46C208.668 28.596 210.564 28.164 212.7 28.164C214.836 28.164 216.732 28.596 218.388 29.46C220.068 30.3 221.376 31.476 222.312 32.988C223.248 34.5 223.716 36.24 223.716 38.208C223.716 40.176 223.248 41.928 222.312 43.464C221.376 44.976 220.068 46.164 218.388 47.028C216.732 47.892 214.836 48.324 212.7 48.324ZM212.7 42.888C213.492 42.888 214.188 42.708 214.788 42.348C215.412 41.988 215.904 41.46 216.264 40.764C216.624 40.044 216.804 39.192 216.804 38.208C216.804 37.224 216.624 36.396 216.264 35.724C215.904 35.028 215.412 34.5 214.788 34.14C214.188 33.78 213.492 33.6 212.7 33.6C211.932 33.6 211.236 33.78 210.612 34.14C210.012 34.5 209.52 35.028 209.136 35.724C208.776 36.396 208.596 37.224 208.596 38.208C208.596 39.192 208.776 40.044 209.136 40.764C209.52 41.46 210.012 41.988 210.612 42.348C211.236 42.708 211.932 42.888 212.7 42.888ZM227.605 48V28.488H234.121V34.176L233.149 32.556C233.725 31.092 234.661 30 235.957 29.28C237.253 28.536 238.825 28.164 240.673 28.164V34.32C240.361 34.272 240.085 34.248 239.845 34.248C239.629 34.224 239.389 34.212 239.125 34.212C237.733 34.212 236.605 34.596 235.741 35.364C234.877 36.108 234.445 37.332 234.445 39.036V48H227.605ZM253.525 48.324C251.029 48.324 249.085 47.712 247.693 46.488C246.301 45.24 245.605 43.368 245.605 40.872V24.132H252.445V40.8C252.445 41.496 252.637 42.048 253.021 42.456C253.405 42.84 253.897 43.032 254.497 43.032C255.313 43.032 256.009 42.828 256.585 42.42L258.277 47.208C257.701 47.592 256.993 47.868 256.153 48.036C255.313 48.228 254.437 48.324 253.525 48.324ZM242.761 34.32V29.208H256.909V34.32H242.761ZM269.842 48.324C268.258 48.324 266.83 48.012 265.558 47.388C264.31 46.764 263.326 45.792 262.606 44.472C261.91 43.128 261.562 41.436 261.562 39.396V28.488H268.402V38.28C268.402 39.792 268.678 40.872 269.23 41.52C269.806 42.168 270.61 42.492 271.642 42.492C272.314 42.492 272.926 42.336 273.478 42.024C274.03 41.712 274.474 41.22 274.81 40.548C275.146 39.852 275.314 38.964 275.314 37.884V28.488H282.154V48H275.638V42.492L276.898 44.04C276.226 45.48 275.254 46.56 273.982 47.28C272.71 47.976 271.33 48.324 269.842 48.324ZM299.988 28.164C301.5 28.164 302.868 28.476 304.092 29.1C305.316 29.7 306.276 30.636 306.972 31.908C307.692 33.18 308.052 34.824 308.052 36.84V48H301.212V37.956C301.212 36.564 300.924 35.556 300.348 34.932C299.796 34.284 299.016 33.96 298.008 33.96C297.288 33.96 296.628 34.128 296.028 34.464C295.428 34.776 294.96 35.268 294.624 35.94C294.288 36.612 294.12 37.488 294.12 38.568V48H287.28V28.488H293.796V34.032L292.536 32.412C293.28 30.996 294.3 29.94 295.596 29.244C296.892 28.524 298.356 28.164 299.988 28.164ZM324.983 48V44.364L324.515 43.464V36.768C324.515 35.688 324.179 34.86 323.507 34.284C322.859 33.684 321.815 33.384 320.375 33.384C319.439 33.384 318.491 33.54 317.531 33.852C316.571 34.14 315.755 34.548 315.083 35.076L312.779 30.432C313.883 29.712 315.203 29.16 316.739 28.776C318.299 28.368 319.847 28.164 321.383 28.164C324.551 28.164 326.999 28.896 328.727 30.36C330.479 31.8 331.355 34.068 331.355 37.164V48H324.983ZM319.223 48.324C317.663 48.324 316.343 48.06 315.263 47.532C314.183 47.004 313.355 46.284 312.779 45.372C312.227 44.46 311.951 43.44 311.951 42.312C311.951 41.112 312.251 40.08 312.851 39.216C313.475 38.328 314.423 37.656 315.695 37.2C316.967 36.72 318.611 36.48 320.627 36.48H325.235V40.044H321.563C320.459 40.044 319.679 40.224 319.223 40.584C318.791 40.944 318.575 41.424 318.575 42.024C318.575 42.624 318.803 43.104 319.259 43.464C319.715 43.824 320.339 44.004 321.131 44.004C321.875 44.004 322.547 43.824 323.147 43.464C323.771 43.08 324.227 42.504 324.515 41.736L325.451 44.256C325.091 45.6 324.383 46.62 323.327 47.316C322.295 47.988 320.927 48.324 319.223 48.324Z" fill="black"/>
<path d="M127.4 47.748L126.863 49.6747L126.878 49.6787L126.892 49.6825L127.4 47.748ZM122.756 45.732L120.929 44.9186L120.249 46.4458L121.631 47.3859L122.756 45.732ZM125.096 40.476L126.172 38.7902L124.214 37.5402L123.269 39.6626L125.096 40.476ZM128.984 42.276L128.361 44.1765L128.379 44.1825L128.398 44.1882L128.984 42.276ZM135.788 42.708L136.327 44.6339L136.363 44.624L136.398 44.6128L135.788 42.708ZM137.084 41.988L135.614 40.6314L135.61 40.6366L137.084 41.988ZM136.724 39.54L135.65 41.2273L135.65 41.2273L136.724 39.54ZM134.672 38.712L135.17 36.775L134.672 38.712ZM131.864 38.064L131.445 40.0196L131.454 40.0216L131.864 38.064ZM128.804 37.236L128.172 39.1334L128.185 39.1377L128.804 37.236ZM126.032 35.94L124.934 37.6114L124.951 37.6225L124.968 37.6333L126.032 35.94ZM123.98 33.816L122.261 34.8382L122.267 34.8486L122.273 34.8589L123.98 33.816ZM124.412 26.364L122.763 25.2323L122.755 25.2434L122.748 25.2546L124.412 26.364ZM128.156 23.412L127.336 21.5877L128.156 23.412ZM139.208 22.872L138.737 24.8157L138.754 24.8198L138.771 24.8237L139.208 22.872ZM143.492 24.492L145.339 25.2586L146.012 23.637L144.491 22.7596L143.492 24.492ZM141.296 29.784L140.346 31.5438L142.294 32.5961L143.143 30.5506L141.296 29.784ZM137.732 28.344L137.183 30.267L137.201 30.2723L137.219 30.2771L137.732 28.344ZM131.936 28.164L132.546 30.0688L132.58 30.0579L132.613 30.0458L131.936 28.164ZM130.64 28.956L129.067 27.7204L129.067 27.7204L130.64 28.956ZM131 31.44L129.891 33.1041L129.936 33.1342L129.983 33.1619L131 31.44ZM133.052 32.232L132.554 34.169L132.586 34.1772L132.618 34.1844L133.052 32.232ZM135.86 32.844L135.441 34.7996L135.45 34.8016L135.86 32.844ZM138.92 33.672L138.288 35.5694L138.314 35.5783L138.341 35.5864L138.92 33.672ZM141.728 34.968L140.63 36.6394L140.647 36.6505L140.664 36.6613L141.728 34.968ZM143.744 37.092L142.005 38.0792L142.021 38.1073L142.037 38.1349L143.744 37.092ZM143.276 44.436L141.617 43.3192L141.612 43.3266L143.276 44.436ZM139.568 47.388L138.748 45.5636L138.738 45.5682L139.568 47.388ZM133.376 46.504C131.477 46.504 129.656 46.2723 127.908 45.8135L126.892 49.6825C128.984 50.2317 131.147 50.504 133.376 50.504V46.504ZM127.937 45.8213C126.181 45.3323 124.849 44.737 123.881 44.0781L121.631 47.3859C123.063 48.359 124.827 49.1077 126.863 49.6747L127.937 45.8213ZM124.583 46.5454L126.923 41.2894L123.269 39.6626L120.929 44.9186L124.583 46.5454ZM124.02 42.1618C125.309 42.9845 126.761 43.6519 128.361 44.1765L129.607 40.3755C128.279 39.9401 127.139 39.4075 126.172 38.7902L124.02 42.1618ZM128.398 44.1882C130.064 44.6987 131.737 44.96 133.412 44.96V40.96C132.159 40.96 130.88 40.7653 129.57 40.3638L128.398 44.1882ZM133.412 44.96C134.486 44.96 135.481 44.8709 136.327 44.6339L135.249 40.7821C134.895 40.8811 134.306 40.96 133.412 40.96V44.96ZM136.398 44.6128C137.147 44.3731 137.957 43.9956 138.558 43.3394L135.61 40.6366C135.656 40.5865 135.666 40.5937 135.591 40.6357C135.516 40.6771 135.385 40.7369 135.178 40.8032L136.398 44.6128ZM138.554 43.3446C139.167 42.6797 139.516 41.8409 139.516 40.908H135.516C135.516 40.8711 135.524 40.8097 135.551 40.7412C135.578 40.6741 135.609 40.6376 135.614 40.6314L138.554 43.3446ZM139.516 40.908C139.516 39.5804 138.843 38.5178 137.798 37.8527L135.65 41.2273C135.694 41.2552 135.644 41.2336 135.587 41.1361C135.56 41.0898 135.541 41.0407 135.529 40.9942C135.517 40.9486 135.516 40.9177 135.516 40.908H139.516ZM137.798 37.8527C137.038 37.3695 136.141 37.0248 135.17 36.775L134.174 40.649C134.883 40.8312 135.354 41.0385 135.65 41.2273L137.798 37.8527ZM135.17 36.775C134.295 36.5501 133.329 36.3273 132.274 36.1064L131.454 40.0216C132.463 40.2326 133.369 40.4419 134.174 40.649L135.17 36.775ZM132.283 36.1084C131.346 35.9076 130.393 35.65 129.423 35.3343L128.185 39.1377C129.279 39.494 130.366 39.7884 131.445 40.0196L132.283 36.1084ZM129.436 35.3386C128.569 35.0496 127.792 34.6839 127.096 34.2467L124.968 37.6333C125.952 38.2521 127.023 38.7504 128.172 39.1334L129.436 35.3386ZM127.13 34.2686C126.539 33.8799 126.062 33.3872 125.687 32.7731L122.273 34.8589C122.954 35.9728 123.845 36.8961 124.934 37.6114L127.13 34.2686ZM125.699 32.7938C125.402 32.2949 125.188 31.5581 125.188 30.468H121.188C121.188 32.0659 121.502 33.5611 122.261 34.8382L125.699 32.7938ZM125.188 30.468C125.188 29.3392 125.486 28.3593 126.076 27.4734L122.748 25.2546C121.706 26.8167 121.188 28.5728 121.188 30.468H125.188ZM126.061 27.4957C126.651 26.6353 127.58 25.8635 128.976 25.2363L127.336 21.5877C125.42 22.4485 123.853 23.6447 122.763 25.2323L126.061 27.4957ZM128.976 25.2363C130.299 24.642 132.062 24.296 134.348 24.296V20.296C131.69 20.296 129.325 20.694 127.336 21.5877L128.976 25.2363ZM134.348 24.296C135.848 24.296 137.31 24.4697 138.737 24.8157L139.679 20.9283C137.938 20.5063 136.16 20.296 134.348 20.296V24.296ZM138.771 24.8237C140.209 25.1457 141.443 25.6188 142.493 26.2244L144.491 22.7596C143.045 21.9251 141.423 21.3183 139.645 20.9203L138.771 24.8237ZM141.645 23.7254L139.449 29.0174L143.143 30.5506L145.339 25.2586L141.645 23.7254ZM142.246 28.0242C140.924 27.3103 139.59 26.7678 138.245 26.4109L137.219 30.2771C138.226 30.5442 139.268 30.9617 140.346 31.5438L142.246 28.0242ZM138.281 26.421C136.946 26.0393 135.621 25.84 134.312 25.84V29.84C135.211 29.84 136.166 29.9767 137.183 30.267L138.281 26.421ZM134.312 25.84C133.209 25.84 132.161 25.9575 131.259 26.2822L132.613 30.0458C132.911 29.9385 133.447 29.84 134.312 29.84V25.84ZM131.326 26.2592C130.517 26.5183 129.67 26.9537 129.067 27.7204L132.213 30.1916C132.173 30.242 132.155 30.2428 132.205 30.2126C132.257 30.181 132.362 30.1275 132.546 30.0688L131.326 26.2592ZM129.067 27.7204C128.523 28.4129 128.244 29.2332 128.244 30.108H132.244C132.244 30.1022 132.244 30.1041 132.243 30.1124C132.242 30.1208 132.239 30.1326 132.234 30.1462C132.23 30.1598 132.224 30.1716 132.219 30.1808C132.214 30.1899 132.211 30.1935 132.213 30.1916L129.067 27.7204ZM128.244 30.108C128.244 31.4021 128.894 32.4398 129.891 33.1041L132.109 29.7759C132.069 29.7491 132.118 29.7718 132.172 29.8678C132.198 29.9136 132.218 29.963 132.23 30.0112C132.242 30.0585 132.244 30.0928 132.244 30.108H128.244ZM129.983 33.1619C130.724 33.6002 131.6 33.9238 132.554 34.169L133.55 30.295C132.824 30.1082 132.332 29.9038 132.017 29.7181L129.983 33.1619ZM132.618 34.1844C133.488 34.3776 134.429 34.5827 135.441 34.7996L136.279 30.8884C135.275 30.6733 134.344 30.4704 133.486 30.2796L132.618 34.1844ZM135.45 34.8016C136.406 35.0017 137.352 35.2575 138.288 35.5694L139.552 31.7746C138.472 31.4145 137.378 31.1183 136.27 30.8864L135.45 34.8016ZM138.341 35.5864C139.203 35.8468 139.961 36.2003 140.63 36.6394L142.826 33.2966C141.815 32.6317 140.701 32.1212 139.499 31.7576L138.341 35.5864ZM140.664 36.6613C141.215 37.0081 141.659 37.47 142.005 38.0792L145.483 36.1048C144.821 34.938 143.921 33.9839 142.792 33.2747L140.664 36.6613ZM142.037 38.1349C142.324 38.6031 142.536 39.3066 142.536 40.368H146.536C146.536 38.7894 146.22 37.3089 145.451 36.0491L142.037 38.1349ZM142.536 40.368C142.536 41.4226 142.241 42.3916 141.617 43.3192L144.935 45.5528C145.991 43.9844 146.536 42.2414 146.536 40.368H142.536ZM141.612 43.3266C141.049 44.1716 140.142 44.9377 138.748 45.5637L140.388 49.2123C142.306 48.3503 143.871 47.1483 144.94 45.5454L141.612 43.3266ZM138.738 45.5682C137.448 46.1565 135.691 46.504 133.376 46.504V50.504C136.053 50.504 138.424 50.1075 140.398 49.2078L138.738 45.5682ZM148.549 48H146.549V50H148.549V48ZM148.549 22.8V20.8H146.549V22.8H148.549ZM168.853 24.636L167.653 26.236L167.66 26.2417L167.668 26.2473L168.853 24.636ZM170.257 32.808L168.624 31.6531L168.618 31.6611L170.257 32.808ZM167.377 35.112L168.199 36.9352L168.207 36.9316L168.215 36.9279L167.377 35.112ZM162.985 35.94L161.138 35.1708L159.985 37.94H162.985V35.94ZM163.705 34.212V32.212H162.371L161.858 33.4428L163.705 34.212ZM168.349 35.04L167.577 36.8852L167.591 36.8912L167.606 36.897L168.349 35.04ZM171.409 37.38L169.768 38.5244L169.784 38.5462L169.799 38.5677L171.409 37.38ZM169.861 46.2L170.991 47.8501L170.996 47.8468L169.861 46.2ZM155.605 42.852H153.605V44.852H155.605V42.852ZM164.353 42.24L165.447 43.9139L165.455 43.9091L165.462 43.9041L164.353 42.24ZM164.353 38.388L163.214 40.0324L163.25 40.0572L163.287 40.0805L164.353 38.388ZM155.101 37.74H153.101V39.74H155.101V37.74ZM155.101 32.808V30.808H153.101V32.808H155.101ZM163.201 32.196L164.325 33.8499V33.8499L163.201 32.196ZM163.201 28.56L162.076 30.2139L162.099 30.2295L162.122 30.2445L163.201 28.56ZM155.605 27.948V25.948H153.605V27.948H155.605ZM150.549 48V22.8H146.549V48H150.549ZM148.549 24.8H161.437V20.8H148.549V24.8ZM161.437 24.8C164.564 24.8 166.523 25.389 167.653 26.236L170.053 23.036C167.918 21.435 164.933 20.8 161.437 20.8V24.8ZM167.668 26.2473C168.805 27.0835 169.301 28.0779 169.301 29.388H173.301C173.301 26.7621 172.164 24.5885 170.037 23.0247L167.668 26.2473ZM169.301 29.388C169.301 30.3032 169.063 31.0327 168.624 31.6531L171.889 33.9629C172.843 32.6153 173.301 31.0648 173.301 29.388H169.301ZM168.618 31.6611C168.182 32.2845 167.521 32.8425 166.538 33.2961L168.215 36.9279C169.728 36.2295 170.987 35.2515 171.895 33.9549L168.618 31.6611ZM166.554 33.2888C165.648 33.6974 164.479 33.94 162.985 33.94V37.94C164.898 37.94 166.657 37.6306 168.199 36.9352L166.554 33.2888ZM164.831 36.7092L165.551 34.9812L161.858 33.4428L161.138 35.1708L164.831 36.7092ZM163.705 36.212C165.278 36.212 166.553 36.4568 167.577 36.8852L169.12 33.1948C167.505 32.5192 165.684 32.212 163.705 32.212V36.212ZM167.606 36.897C168.612 37.2995 169.3 37.8527 169.768 38.5244L173.049 36.2356C172.077 34.8433 170.725 33.8365 169.091 33.183L167.606 36.897ZM169.799 38.5677C170.249 39.1762 170.525 39.9769 170.525 41.088H174.525C174.525 39.2711 174.057 37.5998 173.018 36.1923L169.799 38.5677ZM170.525 41.088C170.525 42.6241 169.952 43.7081 168.726 44.5532L170.996 47.8468C173.321 46.2439 174.525 43.9199 174.525 41.088H170.525ZM168.73 44.5499C167.455 45.4232 165.357 46 162.157 46V50C165.724 50 168.762 49.3768 170.991 47.8501L168.73 44.5499ZM162.157 46H148.549V50H162.157V46ZM155.605 44.852H161.581V40.852H155.605V44.852ZM161.581 44.852C162.968 44.852 164.35 44.6313 165.447 43.9139L163.258 40.5661C163.107 40.6647 162.641 40.852 161.581 40.852V44.852ZM165.462 43.9041C166.734 43.0558 167.325 41.7426 167.325 40.296H163.325C163.325 40.3873 163.316 40.4482 163.308 40.4844C163.301 40.5196 163.293 40.5341 163.293 40.5356C163.292 40.5364 163.293 40.5358 163.291 40.5376C163.289 40.54 163.276 40.5538 163.243 40.5759L165.462 43.9041ZM167.325 40.296C167.325 38.8492 166.731 37.5221 165.418 36.6955L163.287 40.0805C163.313 40.097 163.319 40.1047 163.314 40.0996C163.309 40.0939 163.303 40.0854 163.3 40.0789C163.291 40.0625 163.325 40.1139 163.325 40.296H167.325ZM165.491 36.7436C164.384 35.9775 162.983 35.74 161.581 35.74V39.74C162.626 39.74 163.073 39.9345 163.214 40.0324L165.491 36.7436ZM161.581 35.74H155.101V39.74H161.581V35.74ZM157.101 37.74V32.808H153.101V37.74H157.101ZM155.101 34.808H160.501V30.808H155.101V34.808ZM160.501 34.808C161.865 34.808 163.241 34.5874 164.325 33.8499L162.076 30.5421C161.961 30.6206 161.536 30.808 160.501 30.808V34.808ZM164.325 33.8499C165.548 33.0184 166.101 31.7418 166.101 30.36H162.101C162.101 30.5224 162.071 30.5676 162.08 30.5507C162.083 30.5438 162.089 30.5351 162.095 30.5285C162.1 30.5225 162.097 30.528 162.076 30.5421L164.325 33.8499ZM166.101 30.36C166.101 28.9786 165.545 27.6858 164.279 26.8755L162.122 30.2445C162.136 30.2531 162.131 30.2522 162.119 30.2383C162.105 30.2239 162.094 30.207 162.087 30.1924C162.071 30.161 162.101 30.1963 162.101 30.36H166.101ZM164.325 26.9061C163.241 26.1686 161.865 25.948 160.501 25.948V29.948C161.536 29.948 161.961 30.1354 162.076 30.2139L164.325 26.9061ZM160.501 25.948H155.605V29.948H160.501V25.948ZM153.605 27.948V42.852H157.605V27.948H153.605ZM176.823 47.172L178.215 45.7362L176.823 47.172ZM176.823 41.34L178.168 42.8199L178.18 42.8089L178.192 42.7977L176.823 41.34ZM182.655 41.34L181.285 42.7977L181.297 42.8089L181.309 42.8199L182.655 41.34ZM182.655 47.172L181.262 45.7362L182.655 47.172ZM179.739 46.324C179.081 46.324 178.616 46.125 178.215 45.7362L175.43 48.6078C176.613 49.755 178.092 50.324 179.739 50.324V46.324ZM178.215 45.7362C177.839 45.3717 177.635 44.9307 177.635 44.256H173.635C173.635 45.9333 174.222 47.4363 175.43 48.6078L178.215 45.7362ZM177.635 44.256C177.635 43.5063 177.855 43.1047 178.168 42.8199L175.477 39.8601C174.207 41.0153 173.635 42.5577 173.635 44.256H177.635ZM178.192 42.7977C178.589 42.4244 179.062 42.224 179.739 42.224V38.224C178.111 38.224 176.64 38.7676 175.453 39.8823L178.192 42.7977ZM179.739 42.224C180.415 42.224 180.888 42.4244 181.285 42.7977L184.024 39.8823C182.837 38.7676 181.366 38.224 179.739 38.224V42.224ZM181.309 42.8199C181.623 43.1047 181.843 43.5063 181.843 44.256H185.843C185.843 42.5577 185.271 41.0153 184 39.8601L181.309 42.8199ZM181.843 44.256C181.843 44.9307 181.638 45.3717 181.262 45.7362L184.047 48.6078C185.255 47.4363 185.843 45.9333 185.843 44.256H181.843ZM181.262 45.7362C180.861 46.125 180.396 46.324 179.739 46.324V50.324C181.385 50.324 182.864 49.755 184.047 48.6078L181.262 45.7362ZM188.566 48H186.566V50H188.566V48ZM190.654 23.088L189.24 21.6738L190.654 23.088ZM199.186 21.216L198.783 23.1749H198.783L199.186 21.216ZM201.238 21.972L203.125 22.634L203.661 21.1057L202.278 20.2636L201.238 21.972ZM199.546 26.796L198.538 28.5236L200.631 29.7445L201.433 27.458L199.546 26.796ZM198.574 26.4L197.942 28.2974L198 28.3167L198.059 28.3325L198.574 26.4ZM195.802 26.868L194.348 25.4948L194.346 25.4973L195.802 26.868ZM195.226 30.18H193.226V30.2432L193.23 30.3063L195.226 30.18ZM195.406 33.024H197.406V32.9608L197.402 32.8977L195.406 33.024ZM195.406 48V50H197.406V48H195.406ZM185.722 34.32H183.722V36.32H185.722V34.32ZM185.722 29.208V27.208H183.722V29.208H185.722ZM199.87 29.208H201.87V27.208H199.87V29.208ZM199.87 34.32V36.32H201.87V34.32H199.87ZM190.566 48V28.704H186.566V48H190.566ZM190.566 28.704C190.566 26.7717 191.123 25.4475 192.068 24.5022L189.24 21.6738C187.401 23.5125 186.566 25.9323 186.566 28.704H190.566ZM192.068 24.5022C193.004 23.566 194.447 22.964 196.702 22.964V18.964C193.725 18.964 191.136 19.778 189.24 21.6738L192.068 24.5022ZM196.702 22.964C197.408 22.964 198.1 23.0345 198.783 23.1749L199.589 19.2571C198.639 19.0615 197.676 18.964 196.702 18.964V22.964ZM198.783 23.1749C199.435 23.3093 199.89 23.4927 200.198 23.6804L202.278 20.2636C201.482 19.7792 200.568 19.4587 199.589 19.2571L198.783 23.1749ZM199.351 21.31L197.659 26.134L201.433 27.458L203.125 22.634L199.351 21.31ZM200.554 25.0684C200.095 24.8006 199.602 24.6042 199.089 24.4675L198.059 28.3325C198.266 28.3878 198.421 28.4554 198.538 28.5236L200.554 25.0684ZM199.206 24.5026C198.654 24.3184 198.08 24.22 197.494 24.22V28.22C197.628 28.22 197.774 28.2416 197.942 28.2974L199.206 24.5026ZM197.494 24.22C196.349 24.22 195.212 24.5798 194.348 25.4948L197.256 28.2412C197.256 28.241 197.253 28.2445 197.247 28.2486C197.241 28.2526 197.239 28.2525 197.246 28.2497C197.261 28.2442 197.333 28.22 197.494 28.22V24.22ZM194.346 25.4973C193.464 26.4336 193.226 27.67 193.226 28.776H197.226C197.226 28.4844 197.259 28.313 197.285 28.229C197.308 28.1525 197.314 28.1793 197.258 28.2387L194.346 25.4973ZM193.226 28.776V30.18H197.226V28.776H193.226ZM193.23 30.3063L193.41 33.1503L197.402 32.8977L197.222 30.0537L193.23 30.3063ZM193.406 33.024V48H197.406V33.024H193.406ZM195.406 46H188.566V50H195.406V46ZM187.722 34.32V29.208H183.722V34.32H187.722ZM185.722 31.208H199.87V27.208H185.722V31.208ZM197.87 29.208V34.32H201.87V29.208H197.87ZM199.87 32.32H185.722V36.32H199.87V32.32ZM207.012 47.028L207.937 45.2548L207.012 47.028ZM203.088 43.464L201.38 44.5047L201.39 44.5205L201.4 44.536L203.088 43.464ZM203.088 32.988L201.4 31.916L201.393 31.9256L201.387 31.9353L203.088 32.988ZM207.012 29.46L207.917 31.2437L207.927 31.2385L207.937 31.2332L207.012 29.46ZM218.388 29.46L217.463 31.2332L217.478 31.2411L217.494 31.2489L218.388 29.46ZM222.312 32.988L220.611 34.0407L222.312 32.988ZM222.312 43.464L224.013 44.5167L224.02 44.5047L222.312 43.464ZM218.388 47.028L217.473 45.2494L217.463 45.2548L218.388 47.028ZM214.788 42.348L213.789 40.6156L213.774 40.6242L213.759 40.633L214.788 42.348ZM216.264 40.764L218.04 41.6828L218.047 41.6707L218.053 41.6584L216.264 40.764ZM216.264 35.724L214.488 36.6428L214.494 36.6557L214.501 36.6684L216.264 35.724ZM214.788 34.14L213.759 35.855L213.774 35.8638L213.789 35.8724L214.788 34.14ZM210.612 34.14L209.613 32.4076L209.598 32.4162L209.583 32.425L210.612 34.14ZM209.136 35.724L207.385 34.7578L207.379 34.7687L207.373 34.7796L209.136 35.724ZM209.136 40.764L207.347 41.6584L207.365 41.6947L207.385 41.7302L209.136 40.764ZM210.612 42.348L209.583 44.063L209.598 44.0718L209.613 44.0804L210.612 42.348ZM212.7 46.324C210.84 46.324 209.269 45.9497 207.937 45.2548L206.087 48.8012C208.067 49.8343 210.288 50.324 212.7 50.324V46.324ZM207.937 45.2548C206.579 44.5461 205.54 43.5943 204.776 42.392L201.4 44.536C202.556 46.3577 204.133 47.7819 206.087 48.8012L207.937 45.2548ZM204.796 42.4233C204.069 41.2299 203.684 39.8446 203.684 38.208H199.684C199.684 40.5074 200.235 42.6261 201.38 44.5047L204.796 42.4233ZM203.684 38.208C203.684 36.571 204.069 35.2034 204.789 34.0407L201.387 31.9353C200.235 33.7966 199.684 35.909 199.684 38.208H203.684ZM204.776 34.06C205.537 32.8628 206.569 31.9274 207.917 31.2437L206.107 27.6763C204.143 28.6726 202.559 30.0892 201.4 31.916L204.776 34.06ZM207.937 31.2332C209.269 30.5383 210.84 30.164 212.7 30.164V26.164C210.288 26.164 208.067 26.6537 206.087 27.6868L207.937 31.2332ZM212.7 30.164C214.56 30.164 216.131 30.5383 217.463 31.2332L219.313 27.6868C217.333 26.6537 215.112 26.164 212.7 26.164V30.164ZM217.494 31.2489C218.861 31.9327 219.882 32.8621 220.611 34.0407L224.013 31.9353C222.87 30.0899 221.275 28.6673 219.282 27.6711L217.494 31.2489ZM220.611 34.0407C221.331 35.2034 221.716 36.571 221.716 38.208H225.716C225.716 35.909 225.165 33.7966 224.013 31.9353L220.611 34.0407ZM221.716 38.208C221.716 39.8446 221.331 41.2299 220.604 42.4233L224.02 44.5047C225.165 42.6261 225.716 40.5074 225.716 38.208H221.716ZM220.611 42.4113C219.879 43.595 218.851 44.5408 217.473 45.2494L219.303 48.8066C221.285 47.7872 222.873 46.357 224.013 44.5167L220.611 42.4113ZM217.463 45.2548C216.131 45.9497 214.56 46.324 212.7 46.324V50.324C215.112 50.324 217.333 49.8343 219.313 48.8012L217.463 45.2548ZM212.7 44.888C213.806 44.888 214.867 44.6331 215.817 44.063L213.759 40.633C213.509 40.7829 213.178 40.888 212.7 40.888V44.888ZM215.787 44.0804C216.772 43.5124 217.521 42.6877 218.04 41.6828L214.488 39.8452C214.287 40.2323 214.052 40.4636 213.789 40.6156L215.787 44.0804ZM218.053 41.6584C218.579 40.6057 218.804 39.4345 218.804 38.208H214.804C214.804 38.9495 214.669 39.4823 214.475 39.8696L218.053 41.6584ZM218.804 38.208C218.804 36.9876 218.581 35.8143 218.027 34.7796L214.501 36.6684C214.667 36.9777 214.804 37.4604 214.804 38.208H218.804ZM218.04 34.8052C217.521 33.8003 216.772 32.9756 215.787 32.4076L213.789 35.8724C214.052 36.0244 214.287 36.2557 214.488 36.6428L218.04 34.8052ZM215.817 32.425C214.867 31.8549 213.806 31.6 212.7 31.6V35.6C213.178 35.6 213.509 35.7051 213.759 35.855L215.817 32.425ZM212.7 31.6C211.605 31.6 210.561 31.8607 209.613 32.4076L211.611 35.8724C211.911 35.6993 212.259 35.6 212.7 35.6V31.6ZM209.583 32.425C208.641 32.9901 207.916 33.7957 207.385 34.7578L210.887 36.6902C211.124 36.2603 211.383 36.0099 211.641 35.855L209.583 32.425ZM207.373 34.7796C206.819 35.8143 206.596 36.9876 206.596 38.208H210.596C210.596 37.4604 210.733 36.9777 210.899 36.6684L207.373 34.7796ZM206.596 38.208C206.596 39.4345 206.821 40.6057 207.347 41.6584L210.925 39.8696C210.731 39.4823 210.596 38.9495 210.596 38.208H206.596ZM207.385 41.7302C207.916 42.6923 208.641 43.4979 209.583 44.063L211.641 40.633C211.383 40.4781 211.124 40.2277 210.887 39.7978L207.385 41.7302ZM209.613 44.0804C210.561 44.6273 211.605 44.888 212.7 44.888V40.888C212.259 40.888 211.911 40.7887 211.611 40.6156L209.613 44.0804ZM227.605 48H225.605V50H227.605V48ZM227.605 28.488V26.488H225.605V28.488H227.605ZM234.121 28.488H236.121V26.488H234.121V28.488ZM234.121 34.176L232.406 35.205L236.121 41.3966V34.176H234.121ZM233.149 32.556L231.287 31.8237L230.927 32.7404L231.434 33.585L233.149 32.556ZM235.957 29.28L236.928 31.0283L236.94 31.0215L236.952 31.0145L235.957 29.28ZM240.673 28.164H242.673V26.164H240.673V28.164ZM240.673 34.32L240.368 36.2967L242.673 36.6512V34.32H240.673ZM239.845 34.248L239.624 36.2358L239.734 36.248H239.845V34.248ZM235.741 35.364L237.046 36.8795L237.058 36.8693L237.069 36.8588L235.741 35.364ZM234.445 48V50H236.445V48H234.445ZM229.605 48V28.488H225.605V48H229.605ZM227.605 30.488H234.121V26.488H227.605V30.488ZM232.121 28.488V34.176H236.121V28.488H232.121ZM235.836 33.147L234.864 31.527L231.434 33.585L232.406 35.205L235.836 33.147ZM235.01 33.2882C235.427 32.2274 236.063 31.5086 236.928 31.0283L234.985 27.5317C233.258 28.4914 232.022 29.9566 231.287 31.8237L235.01 33.2882ZM236.952 31.0145C237.881 30.4812 239.092 30.164 240.673 30.164V26.164C238.557 26.164 236.624 26.5908 234.961 27.5455L236.952 31.0145ZM238.673 28.164V34.32H242.673V28.164H238.673ZM240.977 32.3433C240.593 32.2843 240.212 32.248 239.845 32.248V36.248C239.957 36.248 240.128 36.2597 240.368 36.2967L240.977 32.3433ZM240.065 32.2602C239.763 32.2266 239.447 32.212 239.125 32.212V36.212C239.33 36.212 239.495 36.2214 239.624 36.2358L240.065 32.2602ZM239.125 32.212C237.348 32.212 235.714 32.7121 234.412 33.8692L237.069 36.8588C237.496 36.4799 238.117 36.212 239.125 36.212V32.212ZM234.436 33.8485C232.949 35.1285 232.445 37.0416 232.445 39.036H236.445C236.445 37.6224 236.804 37.0874 237.046 36.8795L234.436 33.8485ZM232.445 39.036V48H236.445V39.036H232.445ZM234.445 46H227.605V50H234.445V46ZM247.693 46.488L246.358 47.9771L246.365 47.9836L246.372 47.9899L247.693 46.488ZM245.605 24.132V22.132H243.605V24.132H245.605ZM252.445 24.132H254.445V22.132H252.445V24.132ZM253.021 42.456L251.564 43.8267L251.585 43.8488L251.607 43.8702L253.021 42.456ZM256.585 42.42L258.471 41.7536L257.589 39.2581L255.429 40.788L256.585 42.42ZM258.277 47.208L259.386 48.8721L260.681 48.0089L260.163 46.5416L258.277 47.208ZM256.153 48.036L255.761 46.0748L255.734 46.0802L255.707 46.0863L256.153 48.036ZM242.761 34.32H240.761V36.32H242.761V34.32ZM242.761 29.208V27.208H240.761V29.208H242.761ZM256.909 29.208H258.909V27.208H256.909V29.208ZM256.909 34.32V36.32H258.909V34.32H256.909ZM253.525 46.324C251.345 46.324 249.93 45.7921 249.014 44.9861L246.372 47.9899C248.24 49.6319 250.713 50.324 253.525 50.324V46.324ZM249.028 44.9989C248.188 44.246 247.605 42.9998 247.605 40.872H243.605C243.605 43.7362 244.414 46.234 246.358 47.9771L249.028 44.9989ZM247.605 40.872V24.132H243.605V40.872H247.605ZM245.605 26.132H252.445V22.132H245.605V26.132ZM250.445 24.132V40.8H254.445V24.132H250.445ZM250.445 40.8C250.445 41.8761 250.752 42.9631 251.564 43.8267L254.477 41.0853C254.486 41.0949 254.486 41.101 254.478 41.079C254.468 41.0502 254.445 40.9659 254.445 40.8H250.445ZM251.607 43.8702C252.407 44.6703 253.427 45.032 254.497 45.032V41.032C254.454 41.032 254.427 41.0285 254.413 41.0262C254.401 41.024 254.399 41.0225 254.405 41.0248C254.411 41.0273 254.42 41.0315 254.428 41.0369C254.436 41.0422 254.438 41.0451 254.435 41.0418L251.607 43.8702ZM254.497 45.032C255.66 45.032 256.776 44.7353 257.741 44.052L255.429 40.788C255.241 40.9207 254.965 41.032 254.497 41.032V45.032ZM254.699 43.0864L256.391 47.8744L260.163 46.5416L258.471 41.7536L254.699 43.0864ZM257.167 45.5439C256.854 45.753 256.403 45.9463 255.761 46.0748L256.545 49.9972C257.582 49.7897 258.548 49.431 259.386 48.8721L257.167 45.5439ZM255.707 46.0863C255.022 46.243 254.296 46.324 253.525 46.324V50.324C254.578 50.324 255.604 50.213 256.599 49.9857L255.707 46.0863ZM244.761 34.32V29.208H240.761V34.32H244.761ZM242.761 31.208H256.909V27.208H242.761V31.208ZM254.909 29.208V34.32H258.909V29.208H254.909ZM256.909 32.32H242.761V36.32H256.909V32.32ZM265.558 47.388L264.664 49.1769L264.671 49.1802L264.678 49.1836L265.558 47.388ZM262.606 44.472L260.83 45.3917L260.84 45.4108L260.851 45.4297L262.606 44.472ZM261.562 28.488V26.488H259.562V28.488H261.562ZM268.402 28.488H270.402V26.488H268.402V28.488ZM269.23 41.52L267.708 42.8169L267.722 42.833L267.736 42.8487L269.23 41.52ZM274.81 40.548L276.599 41.4424L276.605 41.43L276.612 41.4175L274.81 40.548ZM275.314 28.488V26.488H273.314V28.488H275.314ZM282.154 28.488H284.154V26.488H282.154V28.488ZM282.154 48V50H284.154V48H282.154ZM275.638 48H273.638V50H275.638V48ZM275.638 42.492L277.19 41.2295L273.638 36.8666V42.492H275.638ZM276.898 44.04L278.711 44.8858L279.241 43.7497L278.45 42.7775L276.898 44.04ZM273.982 47.28L274.942 49.0345L274.955 49.0276L274.968 49.0205L273.982 47.28ZM269.842 46.324C268.527 46.324 267.406 46.0668 266.439 45.5924L264.678 49.1836C266.255 49.9572 267.989 50.324 269.842 50.324V46.324ZM266.453 45.5991C265.599 45.1721 264.903 44.5051 264.362 43.5143L260.851 45.4297C261.75 47.0789 263.022 48.3559 264.664 49.1769L266.453 45.5991ZM264.382 43.5523C263.876 42.5739 263.562 41.2222 263.562 39.396H259.562C259.562 41.6498 259.945 43.6821 260.83 45.3917L264.382 43.5523ZM263.562 39.396V28.488H259.562V39.396H263.562ZM261.562 30.488H268.402V26.488H261.562V30.488ZM266.402 28.488V38.28H270.402V28.488H266.402ZM266.402 38.28C266.402 39.9357 266.685 41.6165 267.708 42.8169L270.753 40.2231C270.672 40.1275 270.402 39.6483 270.402 38.28H266.402ZM267.736 42.8487C268.764 44.0052 270.158 44.492 271.642 44.492V40.492C271.063 40.492 270.849 40.3308 270.725 40.1913L267.736 42.8487ZM271.642 44.492C272.638 44.492 273.592 44.257 274.463 43.7651L272.494 40.2829C272.261 40.415 271.991 40.492 271.642 40.492V44.492ZM274.463 43.7651C275.421 43.2233 276.119 42.4033 276.599 41.4424L273.022 39.6536C272.83 40.0367 272.64 40.2007 272.494 40.2829L274.463 43.7651ZM276.612 41.4175C277.12 40.3647 277.314 39.1529 277.314 37.884H273.314C273.314 38.7751 273.173 39.3393 273.009 39.6785L276.612 41.4175ZM277.314 37.884V28.488H273.314V37.884H277.314ZM275.314 30.488H282.154V26.488H275.314V30.488ZM280.154 28.488V48H284.154V28.488H280.154ZM282.154 46H275.638V50H282.154V46ZM277.638 48V42.492H273.638V48H277.638ZM274.087 43.7545L275.347 45.3025L278.45 42.7775L277.19 41.2295L274.087 43.7545ZM275.086 43.1942C274.574 44.2918 273.875 45.0425 272.997 45.5395L274.968 49.0205C276.634 48.0775 277.879 46.6682 278.711 44.8858L275.086 43.1942ZM273.022 45.5255C272.053 46.0561 271.004 46.324 269.842 46.324V50.324C271.657 50.324 273.368 49.8959 274.942 49.0345L273.022 45.5255ZM304.092 29.1L303.184 30.8818L303.198 30.8889L303.212 30.8958L304.092 29.1ZM306.972 31.908L305.218 32.868L305.225 32.8807L305.232 32.8932L306.972 31.908ZM308.052 48V50H310.052V48H308.052ZM301.212 48H299.212V50H301.212V48ZM300.348 34.932L298.826 36.2289L298.852 36.2593L298.879 36.2886L300.348 34.932ZM296.028 34.464L296.951 36.2384L296.978 36.2241L297.005 36.209L296.028 34.464ZM294.12 48V50H296.12V48H294.12ZM287.28 48H285.28V50H287.28V48ZM287.28 28.488V26.488H285.28V28.488H287.28ZM293.796 28.488H295.796V26.488H293.796V28.488ZM293.796 34.032L292.218 35.2599L295.796 39.8611V34.032H293.796ZM292.536 32.412L290.766 31.4817L290.166 32.6226L290.958 33.6399L292.536 32.412ZM295.596 29.244L296.542 31.006L296.555 30.9992L296.568 30.9923L295.596 29.244ZM299.988 30.164C301.217 30.164 302.269 30.4152 303.184 30.8818L305.001 27.3182C303.468 26.5368 301.784 26.164 299.988 26.164V30.164ZM303.212 30.8958C304.041 31.3023 304.706 31.9338 305.218 32.868L308.727 30.948C307.846 29.3382 306.591 28.0977 304.973 27.3042L303.212 30.8958ZM305.232 32.8932C305.729 33.7721 306.052 35.0444 306.052 36.84H310.052C310.052 34.6036 309.655 32.5879 308.713 30.9228L305.232 32.8932ZM306.052 36.84V48H310.052V36.84H306.052ZM308.052 46H301.212V50H308.052V46ZM303.212 48V37.956H299.212V48H303.212ZM303.212 37.956C303.212 36.3638 302.896 34.7433 301.818 33.5754L298.879 36.2886C298.953 36.3687 299.212 36.7642 299.212 37.956H303.212ZM301.871 33.6351C300.868 32.4577 299.483 31.96 298.008 31.96V35.96C298.549 35.96 298.725 36.1103 298.826 36.2289L301.871 33.6351ZM298.008 31.96C296.963 31.96 295.964 32.2078 295.051 32.719L297.005 36.209C297.293 36.0482 297.614 35.96 298.008 35.96V31.96ZM295.106 32.6896C294.09 33.2177 293.338 34.0401 292.835 35.0456L296.413 36.8344C296.582 36.4959 296.767 36.3343 296.951 36.2384L295.106 32.6896ZM292.835 35.0456C292.313 36.0897 292.12 37.3039 292.12 38.568H296.12C296.12 37.6721 296.263 37.1343 296.413 36.8344L292.835 35.0456ZM292.12 38.568V48H296.12V38.568H292.12ZM294.12 46H287.28V50H294.12V46ZM289.28 48V28.488H285.28V48H289.28ZM287.28 30.488H293.796V26.488H287.28V30.488ZM291.796 28.488V34.032H295.796V28.488H291.796ZM295.375 32.8041L294.115 31.1841L290.958 33.6399L292.218 35.2599L295.375 32.8041ZM294.307 33.3423C294.882 32.2472 295.629 31.4966 296.542 31.006L294.65 27.482C292.972 28.3834 291.678 29.7448 290.766 31.4817L294.307 33.3423ZM296.568 30.9923C297.537 30.4536 298.661 30.164 299.988 30.164V26.164C298.051 26.164 296.247 26.5944 294.625 27.4957L296.568 30.9923ZM324.983 48H322.983V50H324.983V48ZM324.983 44.364H326.983V43.8751L326.757 43.4413L324.983 44.364ZM324.515 43.464H322.515V43.9529L322.74 44.3867L324.515 43.464ZM323.507 34.284L322.148 35.7515L322.176 35.7776L322.205 35.8025L323.507 34.284ZM317.531 33.852L318.105 35.7677L318.127 35.7611L318.149 35.7541L317.531 33.852ZM315.083 35.076L313.291 35.9649L314.384 38.1683L316.318 36.6486L315.083 35.076ZM312.779 30.432L311.686 28.7568L310.197 29.7281L310.987 31.3209L312.779 30.432ZM316.739 28.776L317.224 30.7163L317.234 30.7137L317.245 30.7109L316.739 28.776ZM328.727 30.36L327.434 31.886L327.445 31.8956L327.457 31.9051L328.727 30.36ZM331.355 48V50H333.355V48H331.355ZM315.263 47.532L316.141 45.7352L315.263 47.532ZM312.779 45.372L311.068 46.4076L311.077 46.4239L311.088 46.44L312.779 45.372ZM312.851 39.216L311.214 38.0661L311.208 38.0752L312.851 39.216ZM315.695 37.2L316.37 39.0827L316.385 39.0771L316.401 39.0712L315.695 37.2ZM325.235 36.48H327.235V34.48H325.235V36.48ZM325.235 40.044V42.044H327.235V40.044H325.235ZM319.223 40.584L317.983 39.0142L317.963 39.0306L317.942 39.0476L319.223 40.584ZM319.259 43.464L318.019 45.0338L319.259 43.464ZM323.147 43.464L324.176 45.179L324.185 45.1732L324.195 45.1673L323.147 43.464ZM324.515 41.736L326.389 41.0396L324.524 36.0161L322.642 41.0338L324.515 41.736ZM325.451 44.256L327.383 44.7735L327.548 44.1575L327.325 43.5596L325.451 44.256ZM323.327 47.316L324.418 48.992L324.427 48.9859L323.327 47.316ZM326.983 48V44.364H322.983V48H326.983ZM326.757 43.4413L326.289 42.5413L322.74 44.3867L323.208 45.2867L326.757 43.4413ZM326.515 43.464V36.768H322.515V43.464H326.515ZM326.515 36.768C326.515 35.2446 326.02 33.8042 324.808 32.7655L322.205 35.8025C322.337 35.9158 322.515 36.1314 322.515 36.768H326.515ZM324.865 32.8165C323.675 31.7139 322.019 31.384 320.375 31.384V35.384C321.611 35.384 322.043 35.6541 322.148 35.7515L324.865 32.8165ZM320.375 31.384C319.213 31.384 318.056 31.5781 316.912 31.9499L318.149 35.7541C318.925 35.5019 319.664 35.384 320.375 35.384V31.384ZM316.956 31.9363C315.797 32.2841 314.747 32.7964 313.847 33.5034L316.318 36.6486C316.762 36.2996 317.344 35.9959 318.105 35.7677L316.956 31.9363ZM316.874 34.1871L314.57 29.5431L310.987 31.3209L313.291 35.9649L316.874 34.1871ZM313.871 32.1072C314.756 31.5304 315.861 31.0569 317.224 30.7163L316.254 26.8357C314.544 27.2631 313.01 27.8936 311.686 28.7568L313.871 32.1072ZM317.245 30.7109C318.648 30.344 320.026 30.164 321.383 30.164V26.164C319.668 26.164 317.95 26.392 316.233 26.8411L317.245 30.7109ZM321.383 30.164C324.264 30.164 326.188 30.8305 327.434 31.886L330.019 28.834C327.809 26.9615 324.837 26.164 321.383 26.164V30.164ZM327.457 31.9051C328.593 32.8394 329.355 34.4352 329.355 37.164H333.355C333.355 33.7008 332.364 30.7606 329.997 28.8149L327.457 31.9051ZM329.355 37.164V48H333.355V37.164H329.355ZM331.355 46H324.983V50H331.355V46ZM319.223 46.324C317.88 46.324 316.879 46.0958 316.141 45.7352L314.384 49.3288C315.807 50.0242 317.445 50.324 319.223 50.324V46.324ZM316.141 45.7352C315.355 45.3509 314.825 44.8674 314.47 44.304L311.088 46.44C311.884 47.7006 313.01 48.6571 314.384 49.3288L316.141 45.7352ZM314.49 44.3364C314.138 43.7551 313.951 43.097 313.951 42.312H309.951C309.951 43.783 310.315 45.1649 311.068 46.4076L314.49 44.3364ZM313.951 42.312C313.951 41.4604 314.158 40.8401 314.493 40.3568L311.208 38.0752C310.344 39.3199 309.951 40.7636 309.951 42.312H313.951ZM314.487 40.3659C314.821 39.8903 315.39 39.4339 316.37 39.0827L315.02 35.3173C313.455 35.8781 312.128 36.7657 311.214 38.0661L314.487 40.3659ZM316.401 39.0712C317.366 38.707 318.746 38.48 320.627 38.48V34.48C318.475 34.48 316.567 34.733 314.989 35.3288L316.401 39.0712ZM320.627 38.48H325.235V34.48H320.627V38.48ZM323.235 36.48V40.044H327.235V36.48H323.235ZM325.235 38.044H321.563V42.044H325.235V38.044ZM321.563 38.044C320.358 38.044 318.993 38.2172 317.983 39.0142L320.462 42.1538C320.388 42.2124 320.395 42.175 320.599 42.1278C320.798 42.0819 321.109 42.044 321.563 42.044V38.044ZM317.942 39.0476C317.02 39.8157 316.575 40.8758 316.575 42.024H320.575C320.575 41.9941 320.577 41.9837 320.576 41.9887C320.575 41.9945 320.571 42.0113 320.56 42.0347C320.55 42.0584 320.536 42.0803 320.523 42.0981C320.509 42.1155 320.501 42.1225 320.503 42.1204L317.942 39.0476ZM316.575 42.024C316.575 43.2128 317.065 44.2803 318.019 45.0338L320.498 41.8942C320.49 41.8883 320.497 41.8924 320.51 41.9086C320.524 41.9254 320.539 41.9484 320.552 41.9759C320.565 42.0032 320.572 42.0256 320.574 42.0384C320.577 42.0504 320.575 42.0471 320.575 42.024H316.575ZM318.019 45.0338C318.937 45.7585 320.051 46.004 321.131 46.004V42.004C320.883 42.004 320.72 41.9755 320.623 41.9474C320.531 41.9207 320.5 41.8958 320.498 41.8942L318.019 45.0338ZM321.131 46.004C322.213 46.004 323.245 45.7374 324.176 45.179L322.118 41.749C321.848 41.9106 321.536 42.004 321.131 42.004V46.004ZM324.195 45.1673C325.242 44.5227 325.963 43.5698 326.387 42.4382L322.642 41.0338C322.49 41.4382 322.299 41.6373 322.098 41.7607L324.195 45.1673ZM322.64 42.4324L323.576 44.9524L327.325 43.5596L326.389 41.0396L322.64 42.4324ZM323.519 43.7385C323.272 44.6607 322.831 45.2473 322.226 45.6461L324.427 48.9859C325.934 47.9927 326.91 46.5393 327.383 44.7735L323.519 43.7385ZM322.235 45.64C321.63 46.0339 320.683 46.324 319.223 46.324V50.324C321.171 50.324 322.959 49.9421 324.418 48.992L322.235 45.64Z" fill="white" mask="url(#path-2-outside-1_1_63)"/>
<path d="M30.78 58.72C27.42 58.72 24.2 58.28 21.12 57.4C18.04 56.48 15.56 55.3 13.68 53.86L16.98 46.54C18.78 47.82 20.9 48.88 23.34 49.72C25.82 50.52 28.32 50.92 30.84 50.92C32.76 50.92 34.3 50.74 35.46 50.38C36.66 49.98 37.54 49.44 38.1 48.76C38.66 48.08 38.94 47.3 38.94 46.42C38.94 45.3 38.5 44.42 37.62 43.78C36.74 43.1 35.58 42.56 34.14 42.16C32.7 41.72 31.1 41.32 29.34 40.96C27.62 40.56 25.88 40.08 24.12 39.52C22.4 38.96 20.82 38.24 19.38 37.36C17.94 36.48 16.76 35.32 15.84 33.88C14.96 32.44 14.52 30.6 14.52 28.36C14.52 25.96 15.16 23.78 16.44 21.82C17.76 19.82 19.72 18.24 22.32 17.08C24.96 15.88 28.26 15.28 32.22 15.28C34.86 15.28 37.46 15.6 40.02 16.24C42.58 16.84 44.84 17.76 46.8 19L43.8 26.38C41.84 25.26 39.88 24.44 37.92 23.92C35.96 23.36 34.04 23.08 32.16 23.08C30.28 23.08 28.74 23.3 27.54 23.74C26.34 24.18 25.48 24.76 24.96 25.48C24.44 26.16 24.18 26.96 24.18 27.88C24.18 28.96 24.62 29.84 25.5 30.52C26.38 31.16 27.54 31.68 28.98 32.08C30.42 32.48 32 32.88 33.72 33.28C35.48 33.68 37.22 34.14 38.94 34.66C40.7 35.18 42.3 35.88 43.74 36.76C45.18 37.64 46.34 38.8 47.22 40.24C48.14 41.68 48.6 43.5 48.6 45.7C48.6 48.06 47.94 50.22 46.62 52.18C45.3 54.14 43.32 55.72 40.68 56.92C38.08 58.12 34.78 58.72 30.78 58.72ZM55.2417 58V16H75.7617C81.0417 16 85.0017 17 87.6417 19C90.3217 21 91.6617 23.64 91.6617 26.92C91.6617 29.12 91.1217 31.04 90.0417 32.68C88.9617 34.28 87.4817 35.52 85.6017 36.4C83.7217 37.28 81.5617 37.72 79.1217 37.72L80.2617 35.26C82.9017 35.26 85.2417 35.7 87.2817 36.58C89.3217 37.42 90.9017 38.68 92.0217 40.36C93.1817 42.04 93.7617 44.1 93.7617 46.54C93.7617 50.14 92.3417 52.96 89.5017 55C86.6617 57 82.4817 58 76.9617 58H55.2417ZM64.9017 50.68H76.2417C78.7617 50.68 80.6617 50.28 81.9417 49.48C83.2617 48.64 83.9217 47.32 83.9217 45.52C83.9217 43.76 83.2617 42.46 81.9417 41.62C80.6617 40.74 78.7617 40.3 76.2417 40.3H64.1817V33.22H74.5617C76.9217 33.22 78.7217 32.82 79.9617 32.02C81.2417 31.18 81.8817 29.92 81.8817 28.24C81.8817 26.6 81.2417 25.38 79.9617 24.58C78.7217 23.74 76.9217 23.32 74.5617 23.32H64.9017V50.68Z" fill="white"/>
</svg>
