<svg width="50" height="49" viewBox="0 0 50 49" fill="none" xmlns="http://www.w3.org/2000/svg">
<g clip-path="url(#clip0_1_541)">
<path d="M15.6249 14.2917H34.3749C34.9499 14.2917 35.4166 13.8343 35.4166 13.2708C35.4166 12.7073 34.9499 12.25 34.3749 12.25H15.6249C15.0499 12.25 14.5833 12.7073 14.5833 13.2708C14.5833 13.8343 15.0499 14.2917 15.6249 14.2917Z" fill="black"/>
<path d="M50 13.5158C50 10.5656 47.55 8.16667 44.5375 8.16667C43.5042 8.16667 42.5208 8.45863 41.6667 8.98129V3.0625C41.6667 1.37404 40.2646 0 38.5417 0H3.125C1.40208 0 0 1.37404 0 3.0625V45.9375C0 47.626 1.40208 49 3.125 49H38.5417C40.2646 49 41.6667 47.626 41.6667 45.9375V23.8998L45.5208 20.1227L45.5271 20.1186L45.5312 20.1125L48.4 17.3011C49.4333 16.2905 50 14.945 50 13.5158ZM28.6792 33.7406C28.3396 32.8994 27.775 31.897 26.7771 30.9231C25.7812 29.9472 24.7583 29.3939 23.9021 29.0611L30.9458 22.1582L38.5417 14.7163L43.3167 19.3958L28.6792 33.7406ZM22.6479 30.7822C23.3208 30.9741 24.3167 31.3988 25.3042 32.3665C26.2917 33.3343 26.7271 34.3123 26.9229 34.9697L21.2229 36.3682L22.6479 30.7822ZM39.5833 45.9375C39.5833 46.501 39.1146 46.9583 38.5417 46.9583H3.125C2.55208 46.9583 2.08333 46.501 2.08333 45.9375V40.8333H4.35833C4.78958 42.0195 5.93542 42.875 7.29167 42.875C9.01458 42.875 10.4167 41.501 10.4167 39.8125C10.4167 38.124 9.01458 36.75 7.29167 36.75C5.93542 36.75 4.78958 37.6055 4.35833 38.7917H2.08333V30.625H4.35833C4.78958 31.8112 5.93542 32.6667 7.29167 32.6667C9.01458 32.6667 10.4167 31.2926 10.4167 29.6042C10.4167 27.9157 9.01458 26.5417 7.29167 26.5417C5.93542 26.5417 4.78958 27.3971 4.35833 28.5833H2.08333V20.4167H4.35833C4.78958 21.6029 5.93542 22.4583 7.29167 22.4583C9.01458 22.4583 10.4167 21.0843 10.4167 19.3958C10.4167 17.7074 9.01458 16.3333 7.29167 16.3333C5.93542 16.3333 4.78958 17.1888 4.35833 18.375H2.08333V10.2083H4.35833C4.78958 11.3945 5.93542 12.25 7.29167 12.25C9.01458 12.25 10.4167 10.876 10.4167 9.1875C10.4167 7.49904 9.01458 6.125 7.29167 6.125C5.93542 6.125 4.78958 6.98046 4.35833 8.16667H2.08333V3.0625C2.08333 2.499 2.55208 2.04167 3.125 2.04167H38.5417C39.1146 2.04167 39.5833 2.499 39.5833 3.0625V10.8065L37.8042 12.5501L29.7771 20.4167H15.625C15.05 20.4167 14.5833 20.874 14.5833 21.4375C14.5833 22.001 15.05 22.4583 15.625 22.4583H27.6937L21.4438 28.5833H15.625C15.05 28.5833 14.5833 29.0407 14.5833 29.6042C14.5833 30.1677 15.05 30.625 15.625 30.625H20.5396L18.9771 36.75H15.625C15.05 36.75 14.5833 37.2073 14.5833 37.7708C14.5833 38.3343 15.05 38.7917 15.625 38.7917H19.7917C19.875 38.7917 19.9604 38.7815 20.0438 38.759L28.3771 36.7173C28.4 36.7112 28.4167 36.6908 28.4396 36.6826C28.5771 36.6377 28.7 36.5724 28.8062 36.4805C28.8229 36.4662 28.8458 36.4662 28.8604 36.4499L39.5833 25.9414V45.9375ZM6.25 39.8125C6.25 39.249 6.71875 38.7917 7.29167 38.7917C7.86458 38.7917 8.33333 39.249 8.33333 39.8125C8.33333 40.376 7.86458 40.8333 7.29167 40.8333C6.71875 40.8333 6.25 40.376 6.25 39.8125ZM6.25 29.6042C6.25 29.0407 6.71875 28.5833 7.29167 28.5833C7.86458 28.5833 8.33333 29.0407 8.33333 29.6042C8.33333 30.1677 7.86458 30.625 7.29167 30.625C6.71875 30.625 6.25 30.1677 6.25 29.6042ZM6.25 19.3958C6.25 18.8323 6.71875 18.375 7.29167 18.375C7.86458 18.375 8.33333 18.8323 8.33333 19.3958C8.33333 19.9593 7.86458 20.4167 7.29167 20.4167C6.71875 20.4167 6.25 19.9593 6.25 19.3958ZM6.25 9.1875C6.25 8.624 6.71875 8.16667 7.29167 8.16667C7.86458 8.16667 8.33333 8.624 8.33333 9.1875C8.33333 9.751 7.86458 10.2083 7.29167 10.2083C6.71875 10.2083 6.25 9.751 6.25 9.1875ZM46.9271 15.8576L44.7896 17.9524L40.0146 13.2708L41.3625 11.9499L42.1542 11.174C42.7896 10.5473 43.6375 10.2043 44.5438 10.2043C46.4042 10.2043 47.9187 11.6885 47.9187 13.5158C47.9167 14.4019 47.5646 15.2308 46.9271 15.8576Z" fill="black"/>
</g>
<defs>
<clipPath id="clip0_1_541">
<rect width="50" height="49" fill="white"/>
</clipPath>
</defs>
</svg>
