<svg width="46" height="43" viewBox="0 0 46 43" fill="none" xmlns="http://www.w3.org/2000/svg">
<path d="M31.215 42.5H11.4998C9.77058 42.5 8.36339 40.8175 8.36339 38.75C8.36339 35.9925 10.0842 33.6225 12.3654 33.2325L20.8085 31.6475L6.57357 14.6275C5.01584 12.765 5.01584 9.73503 6.57357 7.87503C8.14385 5.99753 10.678 6.00003 12.2337 7.86003L15.9388 12.29C16.1207 11.55 16.4552 10.855 16.9424 10.2725C18.381 8.55003 20.6371 8.41003 22.2011 9.83753C22.3809 9.08003 22.7196 8.36753 23.2151 7.77253C24.6558 6.05003 26.9119 5.90753 28.4759 7.34003C28.6515 6.58003 28.9903 5.86753 29.4879 5.27253C31.0582 3.39503 33.5924 3.39753 35.148 5.25753L43.0098 15.5875C44.9376 18.1225 45.9998 21.405 45.9998 24.83C45.9998 28.4975 44.8059 31.9475 42.6356 34.54L39.3465 38.4725C37.1741 41.07 34.2865 42.5 31.215 42.5ZM9.40885 8.96003C8.92167 8.96003 8.43448 9.18253 8.0623 9.62503C7.30957 10.5275 7.30957 11.9725 8.05185 12.86L23.74 31.6175C24.0181 31.95 24.1163 32.4425 23.9951 32.8875C23.8717 33.335 23.5518 33.6625 23.1629 33.735L12.6769 35.705C11.4036 35.9225 10.4543 37.23 10.4543 38.75C10.4543 39.44 10.9227 40 11.4998 40H31.215C33.7283 40 36.091 38.83 37.8683 36.705L41.1573 32.7725C42.9325 30.65 43.9089 27.83 43.9089 24.83C43.9089 22.0275 43.0391 19.3425 41.4646 17.27L33.6363 6.98253C32.9274 6.14253 31.7231 6.14003 30.9787 7.02503C30.6065 7.47003 30.41 8.04003 30.41 8.64753C30.41 9.25503 30.6086 9.82753 30.9683 10.2575L31.0582 10.365C31.4659 10.8525 31.4659 11.645 31.0582 12.1325C30.6588 12.6125 30.0106 12.6225 29.6008 12.1575L29.5987 12.155H29.5966L29.5945 12.1525L29.5924 12.15L29.5903 12.1475C29.5903 12.1475 29.5924 12.1475 29.5883 12.145L27.397 9.52503C26.6568 8.64003 25.4462 8.64003 24.706 9.52503C23.9512 10.4275 23.9512 11.87 24.6934 12.7575L26.8742 15.365C27.0792 15.61 27.1816 15.93 27.1816 16.25C27.1816 16.57 27.0792 16.89 26.8763 17.135C26.4686 17.6225 25.8058 17.6225 25.3981 17.135L21.1242 12.025C20.3841 11.14 19.1734 11.14 18.4332 12.025C17.6784 12.9275 17.6784 14.37 18.4207 15.2575L22.6924 20.365C22.8973 20.61 22.9998 20.93 22.9998 21.25C22.9998 21.57 22.8973 21.89 22.6945 22.135C22.2868 22.6225 21.624 22.6225 21.2162 22.135L10.7554 9.62753C10.3832 9.18253 9.89603 8.96003 9.40885 8.96003Z" fill="black"/>
<path d="M5.97792 21.6025C5.83365 21.6025 5.68728 21.5675 5.54719 21.4925C2.17873 19.67 0 15.65 0 11.25C0 5.0475 4.22155 0 9.40911 0C13.0891 0 16.4513 2.605 17.9735 6.6325C18.2119 7.2625 17.9777 8.0025 17.4508 8.2875C16.9259 8.575 16.3049 8.2925 16.0687 7.6625C14.8831 4.5275 12.2695 2.5 9.40911 2.5C5.37365 2.5 2.09091 6.425 2.09091 11.25C2.09091 14.67 3.78664 17.795 6.40865 19.2125C6.93347 19.4975 7.16765 20.2375 6.93138 20.8675C6.75574 21.3275 6.3752 21.6025 5.97792 21.6025Z" fill="black"/>
</svg>
