<svg width="24" height="68" viewBox="0 0 24 68" fill="none" xmlns="http://www.w3.org/2000/svg">
<path d="M18.802 1.33646L20.114 0.60923L18.802 1.33646ZM9.50256 55.5436L8.13966 56.1701L9.50256 55.5436ZM13.7003 67.2146C14.4773 67.5022 15.3402 67.1055 15.6278 66.3286L20.314 53.668C20.6016 52.8911 20.2049 52.0282 19.428 51.7406C18.6511 51.453 17.7881 51.8497 17.5006 52.6266L13.335 63.8804L2.0812 59.7149C1.30428 59.4273 0.44135 59.824 0.153778 60.6009C-0.133793 61.3778 0.262897 62.2408 1.03981 62.5284L13.7003 67.2146ZM14.5442 29.2144L13.5092 28.1287L14.5442 29.2144ZM17.2379 1.60873L17.4901 2.06369L20.114 0.60923L19.8618 0.154265L17.2379 1.60873ZM8.13966 56.1701L12.8581 66.4344L15.5839 65.1813L10.8654 54.9171L8.13966 56.1701ZM13.5092 28.1287C5.91387 35.3696 3.75663 46.6355 8.13966 56.1701L10.8654 54.9171C7.01766 46.5468 8.91147 36.6567 15.5792 30.3L13.5092 28.1287ZM17.4901 2.06369C22.2475 10.6459 20.6114 21.3578 13.5092 28.1287L15.5792 30.3C23.6695 22.5873 25.5331 10.3853 20.114 0.60923L17.4901 2.06369Z" fill="black"/>
</svg>
